# Blender 4.0.2
# www.blender.org
mtllib Round Cube.mtl
o Cube
v 0.571167 0.571167 -0.945429
v 0.571167 0.945429 -0.571167
v 0.945429 0.571167 -0.571167
v 0.571167 -0.945429 -0.571167
v 0.571167 -0.571167 -0.945429
v 0.945429 -0.571167 -0.571167
v 0.945429 0.571167 0.571167
v 0.571167 0.945429 0.571167
v 0.571167 0.571167 0.945429
v 0.945429 -0.571167 0.571167
v 0.571167 -0.571167 0.945429
v 0.571167 -0.945429 0.571167
v -0.571167 0.571167 -0.945429
v -0.945429 0.571167 -0.571167
v -0.571167 0.945429 -0.571167
v -0.945429 -0.571167 -0.571167
v -0.571167 -0.571167 -0.945429
v -0.571167 -0.945429 -0.571167
v -0.945429 0.571167 0.571167
v -0.571167 0.571167 0.945429
v -0.571167 0.945429 0.571167
v -0.571167 -0.945429 0.571167
v -0.571167 -0.571167 0.945429
v -0.945429 -0.571167 0.571167
v 0.862407 0.566903 -0.862407
v 0.566903 0.862407 -0.862407
v 0.862407 0.862407 -0.566903
v 0.862407 -0.862407 -0.566903
v 0.566903 -0.862407 -0.862407
v 0.862407 -0.566903 -0.862407
v 0.862407 0.566903 0.862407
v 0.862407 0.862407 0.566903
v 0.566903 0.862407 0.862407
v 0.862407 -0.862407 0.566903
v 0.862407 -0.566903 0.862407
v 0.566903 -0.862407 0.862407
v -0.566903 0.862407 -0.862407
v -0.862407 0.566903 -0.862407
v -0.862407 0.862407 -0.566903
v -0.862407 -0.862407 -0.566903
v -0.862407 -0.566903 -0.862407
v -0.566903 -0.862407 -0.862407
v -0.862407 0.862407 0.566903
v -0.862407 0.566903 0.862407
v -0.566903 0.862407 0.862407
v -0.862407 -0.862407 0.566903
v -0.566903 -0.862407 0.862407
v -0.862407 -0.566903 0.862407
v -0.573725 -0.963335 0.000000
v -0.963335 -0.573725 -0.000000
v 0.000000 -0.963335 -0.573725
v 0.000000 -0.573725 -0.963335
v 0.963335 0.000000 -0.573725
v 0.573725 0.000000 -0.963335
v -0.573725 -0.000000 0.963335
v -0.963335 0.000000 0.573725
v 0.573725 0.000000 0.963335
v 0.963335 0.000000 0.573725
v -0.573725 -0.000000 -0.963335
v -0.963335 0.000000 -0.573725
v 0.000000 0.963335 0.573725
v 0.000000 0.573725 0.963335
v 0.573725 0.963335 0.000000
v 0.963335 0.573725 -0.000000
v -0.000000 -0.963335 0.573725
v -0.000000 -0.573725 0.963335
v -0.573725 0.963335 -0.000000
v -0.963335 0.573725 0.000000
v -0.000000 0.963335 -0.573725
v -0.000000 0.573725 -0.963335
v 0.573725 -0.963335 -0.000000
v 0.963335 -0.573725 0.000000
v 0.000000 -0.985078 0.000000
v -0.985078 0.000000 -0.000000
v -0.000000 0.000000 0.985078
v 0.000000 0.985078 0.000000
v 0.985078 0.000000 0.000000
v 0.826225 0.826225 -0.826225
v 0.826225 -0.826225 -0.826225
v 0.826225 0.826225 0.826225
v 0.826225 -0.826225 0.826225
v -0.826225 0.826225 -0.826225
v -0.826225 -0.826225 -0.826225
v -0.826225 0.826225 0.826225
v -0.826225 -0.826225 0.826225
v -0.871041 -0.871040 -0.000000
v 0.000000 -0.871040 -0.871041
v 0.871040 0.000000 -0.871041
v -0.871041 0.000000 0.871040
v 0.871041 0.000000 0.871040
v -0.871041 -0.000000 -0.871040
v 0.000000 0.871040 0.871041
v 0.871041 0.871040 -0.000000
v -0.000000 -0.871040 0.871041
v -0.871041 0.871040 0.000000
v -0.000000 0.871040 -0.871041
v 0.871041 -0.871040 0.000000
v 0.000000 0.000000 -0.985078
vn -0.1429 -0.9794 -0.1429
vn -0.0000 -0.9869 -0.1614
vn -0.0000 -1.0000 -0.0000
vn -0.1614 -0.9869 -0.0000
vn 0.1429 -0.9794 -0.1429
vn 0.1614 -0.9869 -0.0000
vn 0.1429 -0.9794 0.1429
vn -0.0000 -0.9869 0.1614
vn -0.1429 -0.9794 0.1429
vn -0.9794 -0.1429 0.1429
vn -0.9869 -0.0000 0.1614
vn -1.0000 -0.0000 -0.0000
vn -0.9869 -0.1614 -0.0000
vn -0.9794 0.1429 0.1429
vn -0.9869 0.1614 -0.0000
vn -0.9794 0.1429 -0.1429
vn -0.9869 -0.0000 -0.1614
vn -0.9794 -0.1429 -0.1429
vn 0.1429 -0.1429 0.9794
vn 0.1614 -0.0000 0.9869
vn -0.0000 -0.0000 1.0000
vn -0.0000 -0.1614 0.9869
vn 0.1429 0.1429 0.9794
vn -0.0000 0.1614 0.9869
vn -0.1429 0.1429 0.9794
vn -0.1614 -0.0000 0.9869
vn -0.1429 -0.1429 0.9794
vn 0.1429 0.9794 -0.1429
vn -0.0000 0.9869 -0.1614
vn -0.0000 1.0000 -0.0000
vn 0.1614 0.9869 -0.0000
vn -0.1429 0.9794 -0.1429
vn -0.1614 0.9869 -0.0000
vn -0.1429 0.9794 0.1429
vn -0.0000 0.9869 0.1614
vn 0.1429 0.9794 0.1429
vn 0.9794 -0.1429 -0.1429
vn 0.9869 -0.0000 -0.1614
vn 1.0000 -0.0000 -0.0000
vn 0.9869 -0.1614 -0.0000
vn 0.9794 0.1429 -0.1429
vn 0.9869 0.1614 -0.0000
vn 0.9794 0.1429 0.1429
vn 0.9869 -0.0000 0.1614
vn 0.9794 -0.1429 0.1429
vn 0.1429 0.1429 -0.9794
vn 0.1381 0.7003 -0.7003
vn 0.5774 0.5774 -0.5774
vn 0.7003 0.1381 -0.7003
vn 0.7003 0.7003 -0.1381
vn 0.1381 -0.7003 -0.7003
vn 0.5774 -0.5774 -0.5774
vn 0.7003 -0.7003 -0.1381
vn 0.1429 -0.1429 -0.9794
vn 0.7003 -0.1381 -0.7003
vn 0.7003 0.7003 0.1381
vn 0.5774 0.5774 0.5774
vn 0.7003 0.1381 0.7003
vn 0.1381 0.7003 0.7003
vn 0.7003 -0.1381 0.7003
vn 0.5774 -0.5774 0.5774
vn 0.7003 -0.7003 0.1381
vn 0.1381 -0.7003 0.7003
vn -0.1429 0.1429 -0.9794
vn -0.7003 0.1381 -0.7003
vn -0.5774 0.5774 -0.5774
vn -0.1381 0.7003 -0.7003
vn -0.7003 0.7003 -0.1381
vn -0.7003 -0.1381 -0.7003
vn -0.5774 -0.5774 -0.5774
vn -0.7003 -0.7003 -0.1381
vn -0.1429 -0.1429 -0.9794
vn -0.1381 -0.7003 -0.7003
vn -0.7003 0.1381 0.7003
vn -0.5774 0.5774 0.5774
vn -0.7003 0.7003 0.1381
vn -0.1381 0.7003 0.7003
vn -0.1381 -0.7003 0.7003
vn -0.5774 -0.5774 0.5774
vn -0.7003 -0.7003 0.1381
vn -0.7003 -0.1381 0.7003
vn -0.7071 -0.7071 -0.0000
vn -0.0000 -0.7071 -0.7071
vn -0.0000 -0.1614 -0.9869
vn 0.7071 -0.0000 -0.7071
vn 0.1614 -0.0000 -0.9869
vn -0.7071 -0.0000 0.7071
vn 0.7071 -0.0000 0.7071
vn -0.1614 -0.0000 -0.9869
vn -0.7071 -0.0000 -0.7071
vn -0.0000 0.7071 0.7071
vn 0.7071 0.7071 -0.0000
vn -0.0000 -0.7071 0.7071
vn -0.7071 0.7071 -0.0000
vn -0.0000 0.7071 -0.7071
vn -0.0000 0.1614 -0.9869
vn 0.7071 -0.7071 -0.0000
vn -0.0000 -0.0000 -1.0000
vt 0.178604 0.553604
vt 0.252620 0.550745
vt 0.251590 0.625000
vt 0.178284 0.625000
vt 0.351978 0.523022
vt 0.330046 0.625000
vt 0.351978 0.726978
vt 0.252620 0.699255
vt 0.178604 0.696396
vt 0.398022 0.023022
vt 0.496177 0.050718
vt 0.496852 0.125955
vt 0.398022 0.125000
vt 0.571396 0.053604
vt 0.574255 0.127620
vt 0.601978 0.226978
vt 0.499372 0.205046
vt 0.398022 0.226978
vt 0.398022 0.773022
vt 0.499372 0.794954
vt 0.497487 0.877193
vt 0.398022 0.875000
vt 0.601978 0.773022
vt 0.576821 0.876203
vt 0.601978 0.976978
vt 0.500000 0.976978
vt 0.398022 0.976978
vt 0.648022 0.523022
vt 0.750000 0.523022
vt 0.752193 0.625000
vt 0.669954 0.625000
vt 0.851978 0.523022
vt 0.851978 0.625000
vt 0.851978 0.726978
vt 0.750000 0.726978
vt 0.648022 0.726978
vt 0.398022 0.523022
vt 0.500000 0.544954
vt 0.500000 0.625000
vt 0.419954 0.625000
vt 0.601978 0.523022
vt 0.580046 0.625000
vt 0.601978 0.726978
vt 0.500000 0.705046
vt 0.398022 0.726978
vt 0.601978 0.476978
vt 0.611688 0.450995
vt 0.609492 0.480722
vt 0.601978 0.488489
vt 0.625000 0.476978
vt 0.613489 0.488489
vt 0.601978 0.500000
vt 0.325995 0.513312
vt 0.355723 0.515508
vt 0.363489 0.523022
vt 0.351978 0.500000
vt 0.363489 0.511511
vt 0.375000 0.523022
vt 0.601978 0.750000
vt 0.613489 0.761511
vt 0.609492 0.769278
vt 0.601978 0.761511
vt 0.625000 0.773022
vt 0.611688 0.799005
vt 0.375000 0.726978
vt 0.363489 0.738489
vt 0.355723 0.734492
vt 0.363489 0.726978
vt 0.351978 0.750000
vt 0.325995 0.736688
vt 0.601978 0.250000
vt 0.601978 0.238489
vt 0.609492 0.230722
vt 0.613489 0.238489
vt 0.611688 0.200995
vt 0.625000 0.226978
vt 0.125000 0.523022
vt 0.136511 0.511511
vt 0.145390 0.520390
vt 0.141506 0.551571
vt 0.148022 0.500000
vt 0.176571 0.516506
vt 0.573429 0.016506
vt 0.604610 0.020390
vt 0.608494 0.051571
vt 0.601978 0.000000
vt 0.613489 0.011511
vt 0.625000 0.023022
vt 0.176571 0.733494
vt 0.145390 0.729610
vt 0.141506 0.698429
vt 0.148022 0.750000
vt 0.136511 0.738489
vt 0.125000 0.726978
vt 0.140507 0.625000
vt 0.125000 0.625000
vt 0.250635 0.514872
vt 0.250000 0.500000
vt 0.500000 0.500000
vt 0.398022 0.500000
vt 0.398022 0.476978
vt 0.499372 0.455046
vt 0.398022 0.000000
vt 0.500000 0.000000
vt 0.496746 0.014766
vt 0.398022 0.011511
vt 0.500000 0.750000
vt 0.398022 0.750000
vt 0.601978 0.273022
vt 0.499372 0.294954
vt 0.500000 0.250000
vt 0.398022 0.273022
vt 0.398022 0.250000
vt 0.625000 0.875000
vt 0.610869 0.877620
vt 0.625000 0.976978
vt 0.613489 0.976978
vt 0.625000 0.625000
vt 0.625000 0.523022
vt 0.625000 0.726978
vt 0.250635 0.735128
vt 0.250000 0.750000
vt 0.625000 0.125000
vt 0.610128 0.125635
vt 0.625000 0.273022
vt 0.625000 0.375000
vt 0.610869 0.372380
vt 0.613489 0.273022
vt 0.576821 0.374345
vt 0.375000 0.625000
vt 0.375000 0.726978
vt 0.497487 0.375000
vt 0.398022 0.375000
s 1
usemtl Material
f 18/1/1 51/2/2 73/3/3 49/4/4
f 51/2/2 4/5/5 71/6/6 73/3/3
f 73/3/3 71/6/6 12/7/7 65/8/8
f 49/4/4 73/3/3 65/8/8 22/9/9
f 24/10/10 56/11/11 74/12/12 50/13/13
f 56/11/11 19/14/14 68/15/15 74/12/12
f 74/12/12 68/15/15 14/16/16 60/17/17
f 50/13/13 74/12/12 60/17/17 16/18/18
f 11/19/19 57/20/20 75/21/21 66/22/22
f 57/20/20 9/23/23 62/24/24 75/21/21
f 75/21/21 62/24/24 20/25/25 55/26/26
f 66/22/22 75/21/21 55/26/26 23/27/27
f 2/28/28 69/29/29 76/30/30 63/31/31
f 69/29/29 15/32/32 67/33/33 76/30/30
f 76/30/30 67/33/33 21/34/34 61/35/35
f 63/31/31 76/30/30 61/35/35 8/36/36
f 6/37/37 53/38/38 77/39/39 72/40/40
f 53/38/38 3/41/41 64/42/42 77/39/39
f 77/39/39 64/42/42 7/43/43 58/44/44
f 72/40/40 77/39/39 58/44/44 10/45/45
f 1/46/46 26/47/47 78/48/48 25/49/49
f 2/50/28 27/51/50 78/48/48 26/47/47
f 3/52/41 25/49/49 78/48/48 27/51/50
f 4/5/5 29/53/51 79/54/52 28/55/53
f 5/56/54 30/57/55 79/54/52 29/53/51
f 6/58/37 28/55/53 79/54/52 30/57/55
f 7/59/43 32/60/56 80/61/57 31/62/58
f 8/63/36 33/64/59 80/61/57 32/60/56
f 9/23/23 31/62/58 80/61/57 33/64/59
f 10/65/45 35/66/60 81/67/61 34/68/62
f 11/69/19 36/70/63 81/67/61 35/66/60
f 12/7/7 34/68/62 81/67/61 36/70/63
f 13/71/64 38/72/65 82/73/66 37/74/67
f 14/16/16 39/75/68 82/73/66 38/72/65
f 15/76/32 37/74/67 82/73/66 39/75/68
f 16/77/18 41/78/69 83/79/70 40/80/71
f 17/81/72 42/82/73 83/79/70 41/78/69
f 18/1/1 40/80/71 83/79/70 42/82/73
f 19/14/14 44/83/74 84/84/75 43/85/76
f 20/86/25 45/87/77 84/84/75 44/83/74
f 21/88/34 43/85/76 84/84/75 45/87/77
f 22/9/9 47/89/78 85/90/79 46/91/80
f 23/92/27 48/93/81 85/90/79 47/89/78
f 24/94/10 46/91/80 85/90/79 48/93/81
f 18/1/1 49/4/4 86/95/82 40/80/71
f 49/4/4 22/9/9 46/91/80 86/95/82
f 86/95/82 46/91/80 24/94/10 50/96/13
f 40/80/71 86/95/82 50/96/13 16/77/18
f 4/5/5 51/2/2 87/97/83 29/53/51
f 51/2/2 18/1/1 42/82/73 87/97/83
f 87/97/83 42/82/73 17/81/72 52/98/84
f 29/53/51 87/97/83 52/98/84 5/56/54
f 3/41/41 53/38/38 88/99/85 25/52/49
f 53/38/38 6/37/37 30/100/55 88/99/85
f 88/99/85 30/100/55 5/101/54 54/102/86
f 25/52/49 88/99/85 54/102/86 1/46/46
f 23/103/27 55/104/26 89/105/87 48/106/81
f 55/104/26 20/86/25 44/83/74 89/105/87
f 89/105/87 44/83/74 19/14/14 56/11/11
f 48/106/81 89/105/87 56/11/11 24/10/10
f 9/23/23 57/20/20 90/107/88 31/59/58
f 57/20/20 11/19/19 35/108/60 90/107/88
f 90/107/88 35/108/60 10/45/45 58/44/44
f 31/59/58 90/107/88 58/44/44 7/43/43
f 13/109/64 59/110/89 91/111/90 38/71/65
f 59/110/89 17/112/72 41/113/69 91/111/90
f 91/111/90 41/113/69 16/18/18 60/17/17
f 38/71/65 91/111/90 60/17/17 14/16/16
f 8/63/36 61/114/35 92/115/91 33/64/59
f 61/114/35 21/116/34 45/117/77 92/115/91
f 92/115/91 45/117/77 20/25/25 62/24/24
f 33/64/59 92/115/91 62/24/24 9/23/23
f 2/28/28 63/31/31 93/118/92 27/119/50
f 63/31/31 8/36/36 32/120/56 93/118/92
f 93/118/92 32/120/56 7/43/43 64/42/42
f 27/119/50 93/118/92 64/42/42 3/41/41
f 22/9/9 65/8/8 94/121/93 47/89/78
f 65/8/8 12/7/7 36/70/63 94/121/93
f 94/121/93 36/70/63 11/69/19 66/122/22
f 47/89/78 94/121/93 66/122/22 23/92/27
f 21/88/34 67/123/33 95/124/94 43/85/76
f 67/123/33 15/76/32 39/75/68 95/124/94
f 95/124/94 39/75/68 14/16/16 68/15/15
f 43/85/76 95/124/94 68/15/15 19/14/14
f 15/125/32 69/126/29 96/127/95 37/128/67
f 69/126/29 2/50/28 26/47/47 96/127/95
f 96/127/95 26/47/47 1/46/46 70/129/96
f 37/128/67 96/127/95 70/129/96 13/109/64
f 12/7/7 71/6/6 97/130/97 34/131/62
f 71/6/6 4/5/5 28/58/53 97/130/97
f 97/130/97 28/58/53 6/37/37 72/40/40
f 34/131/62 97/130/97 72/40/40 10/45/45
f 17/112/72 59/110/89 98/132/98 52/133/84
f 59/110/89 13/109/64 70/129/96 98/132/98
f 98/132/98 70/129/96 1/46/46 54/102/86
f 52/133/84 98/132/98 54/102/86 5/101/54
